{
  "accessors": [
    {
      "bufferView": 1,
      "componentType": 5126,
      "count": 65532,
      "max": [
        11.28972053527832,
        6.3592309951782227,
        62.773303985595703
      ],
      "min": [
        -11.28972053527832,
        -2.715630054473877,
        -3.9552633762359619
      ],
      "type": "VEC3"
    },
    {
      "bufferView": 1,
      "byteOffset": 786384,
      "componentType": 5126,
      "count": 65532,
      "max": [
        0.99997711181640625,
        0.99999266862869263,
        1
      ],
      "min": [
        -0.99997711181640625,
        -0.9999995231628418,
        -0.99999558925628662
      ],
      "type": "VEC3"
    },
    {
      "bufferView": 0,
      "componentType": 5125,
      "count": 390876,
      "max": [
        65531
      ],
      "min": [
        0
      ],
      "type": "SCALAR"
    },
    {
      "bufferView": 1,
      "byteOffset": 1572768,
      "componentType": 5126,
      "count": 28475,
      "max": [
        5.0727992057800293,
        5.2555642127990723,
        56.960254669189453
      ],
      "min": [
        -5.0727992057800293,
        -1.7659226655960083,
        40.964889526367188
      ],
      "type": "VEC3"
    },
    {
      "bufferView": 1,
      "byteOffset": 1914468,
      "componentType": 5126,
      "count": 28475,
      "max": [
        0.99997138977050781,
        0.99999028444290161,
        0.99995118379592896
      ],
      "min": [
        -0.99997138977050781,
        -0.99999803304672241,
        -0.99999141693115234
      ],
      "type": "VEC3"
    },
    {
      "bufferView": 0,
      "byteOffset": 1563504,
      "componentType": 5125,
      "count": 169992,
      "max": [
        28474
      ],
      "min": [
        0
      ],
      "type": "SCALAR"
    },
    {
      "bufferView": 1,
      "byteOffset": 2256168,
      "componentType": 5126,
      "count": 20642,
      "max": [
        0.12583908438682556,
        6.7838125228881836,
        58.162769317626953
      ],
      "min": [
        -11.219562530517578,
        -2.2699182033538818,
        -3.3541362285614014
      ],
      "type": "VEC3"
    },
    {
      "bufferView": 1,
      "byteOffset": 2503872,
      "componentType": 5126,
      "count": 20642,
      "max": [
        0.99997937679290771,
        0.99993354082107544,
        0.99939262866973877
      ],
      "min": [
        -0.99993914365768433,
        -0.99999076128005981,
        -0.99997782707214355
      ],
      "type": "VEC3"
    },
    {
      "bufferView": 0,
      "byteOffset": 2243472,
      "componentType": 5125,
      "count": 122115,
      "max": [
        20641
      ],
      "min": [
        0
      ],
      "type": "SCALAR"
    },
    {
      "bufferView": 1,
      "byteOffset": 2751576,
      "componentType": 5126,
      "count": 41,
      "max": [
        30,
        30,
        -0
      ],
      "min": [
        -30,
        -30,
        -0
      ],
      "type": "VEC3"
    },
    {
      "bufferView": 1,
      "byteOffset": 2752068,
      "componentType": 5126,
      "count": 41,
      "max": [
        0,
        0,
        1
      ],
      "min": [
        0,
        0,
        1
      ],
      "type": "VEC3"
    },
    {
      "bufferView": 2,
      "componentType": 5126,
      "count": 41,
      "max": [
        1,
        1,
        0,
        1
      ],
      "min": [
        -1,
        -1,
        0,
        1
      ],
      "type": "VEC4"
    },
    {
      "bufferView": 0,
      "byteOffset": 2731932,
      "componentType": 5125,
      "count": 108,
      "max": [
        40
      ],
      "min": [
        0
      ],
      "type": "SCALAR"
    }
  ],
  "asset": {
    "extras": {
      "author": "inventadero (https://sketchfab.com/inventadero)",
      "license": "CC-BY-4.0 (http://creativecommons.org/licenses/by/4.0/)",
      "source": "https://sketchfab.com/models/5d495d5fe512492c815b8230f14f009d",
      "title": "Esqueleto curricular del REA"
    },
    "generator": "Sketchfab-3.18.6",
    "version": "2.0"
  },
  "bufferViews": [
    {
      "buffer": 0,
      "byteLength": 2732364,
      "byteOffset": 0,
      "name": "floatBufferViews",
      "target": 34963
    },
    {
      "buffer": 0,
      "byteLength": 2752560,
      "byteOffset": 2732364,
      "byteStride": 12,
      "name": "floatBufferViews",
      "target": 34962
    },
    {
      "buffer": 0,
      "byteLength": 656,
      "byteOffset": 5484924,
      "byteStride": 16,
      "name": "floatBufferViews",
      "target": 34962
    }
  ],
  "buffers": [
    {
      "byteLength": 5485580,
      "uri": "scene.bin"
    }
  ],
  "materials": [
    {
      "doubleSided": true,
      "emissiveFactor": [
        0,
        0,
        0
      ],
      "name": "Bones",
      "pbrMetallicRoughness": {
        "baseColorFactor": [
          0.58799999999999997,
          0.58799999999999997,
          0.58799999999999997,
          1
        ],
        "metallicFactor": 0,
        "roughnessFactor": 0.89297135959999996
      }
    },
    {
      "doubleSided": true,
      "emissiveFactor": [
        0,
        0,
        0
      ],
      "name": "Muscles",
      "pbrMetallicRoughness": {
        "baseColorFactor": [
          0.75294099999999997,
          0.196078,
          0.196078,
          1
        ],
        "metallicFactor": 0,
        "roughnessFactor": 0.89297135959999996
      }
    },
    {
      "doubleSided": true,
      "emissiveFactor": [
        0,
        0,
        0
      ],
      "name": "Base",
      "pbrMetallicRoughness": {
        "baseColorFactor": [
          0.58823499999999995,
          0.58823499999999995,
          0.58823499999999995,
          1
        ],
        "metallicFactor": 0,
        "roughnessFactor": 0.89297135959999996
      }
    }
  ],
  "meshes": [
    {
      "name": "Rehor-Ecorche-Skeleton_Bones_0",
      "primitives": [
        {
          "attributes": {
            "NORMAL": 1,
            "POSITION": 0
          },
          "indices": 2,
          "material": 0,
          "mode": 4
        }
      ]
    },
    {
      "name": "Rehor-Ecorche-Skeleton_Bones_0",
      "primitives": [
        {
          "attributes": {
            "NORMAL": 4,
            "POSITION": 3
          },
          "indices": 5,
          "material": 0,
          "mode": 4
        }
      ]
    },
    {
      "name": "Rehor-Ecorche-Muscles_Muscles_0",
      "primitives": [
        {
          "attributes": {
            "NORMAL": 7,
            "POSITION": 6
          },
          "indices": 8,
          "material": 1,
          "mode": 4
        }
      ]
    },
    {
      "name": "Rehor-Ecorche-Base_Base_0",
      "primitives": [
        {
          "attributes": {
            "NORMAL": 10,
            "POSITION": 9,
            "TANGENT": 11
          },
          "indices": 12,
          "material": 2,
          "mode": 4
        }
      ]
    }
  ],
  "nodes": [
    {
      "children": [
        1
      ],
      "name": "RootNode (gltf orientation matrix)",
      "rotation": [
        -0.70710678118654746,
        -0,
        -0,
        0.70710678118654757
      ]
    },
    {
      "children": [
        2
      ],
      "name": "RootNode (model correction matrix)"
    },
    {
      "children": [
        3
      ],
      "matrix": [
        1,
        0,
        0,
        0,
        0,
        0,
        1,
        0,
        0,
        -1,
        0,
        0,
        0,
        0,
        0,
        1
      ],
      "name": "Model1.fbx"
    },
    {
      "children": [
        4,
        7,
        9
      ],
      "name": "RootNode"
    },
    {
      "children": [
        5,
        6
      ],
      "matrix": [
        1,
        0,
        0,
        0,
        0,
        2.2204460492503131e-16,
        -1,
        0,
        0,
        1,
        2.2204460492503131e-16,
        0,
        0.076136589050292969,
        0,
        0,
        1
      ],
      "name": "Rehor-Ecorche-Skeleton"
    },
    {
      "mesh": 0,
      "name": "Rehor-Ecorche-Skeleton_Bones_0"
    },
    {
      "mesh": 1,
      "name": "Rehor-Ecorche-Skeleton_Bones_0"
    },
    {
      "children": [
        8
      ],
      "matrix": [
        1,
        0,
        0,
        0,
        0,
        2.2204460492503131e-16,
        -1,
        0,
        0,
        1,
        2.2204460492503131e-16,
        0,
        0,
        0,
        0,
        1
      ],
      "name": "Rehor-Ecorche-Muscles"
    },
    {
      "mesh": 2,
      "name": "Rehor-Ecorche-Muscles_Muscles_0"
    },
    {
      "children": [
        10
      ],
      "matrix": [
        1,
        0,
        0,
        0,
        0,
        2.2204460492503131e-16,
        -1,
        0,
        0,
        1,
        2.2204460492503131e-16,
        0,
        -2.5702356651891023e-05,
        -3.9368228912353516,
        -1.9221820831298828,
        1
      ],
      "name": "Rehor-Ecorche-Base"
    },
    {
      "mesh": 3,
      "name": "Rehor-Ecorche-Base_Base_0"
    }
  ],
  "scene": 0,
  "scenes": [
    {
      "name": "OSG_Scene",
      "nodes": [
        0
      ]
    }
  ]
}

